<svg width="24" height="24" viewBox="0 0 24 24" fill="none" xmlns="http://www.w3.org/2000/svg">
<path d="M3 3.96773C3 3.42317 3.445 2.98096 3.993 2.98096H20.007C20.555 2.98096 21 3.42317 21 3.96773V19.8813C20.9997 20.143 20.895 20.3938 20.7089 20.5788C20.5227 20.7638 20.2703 20.8678 20.007 20.8681H3.993C3.72972 20.8678 3.4773 20.7638 3.29114 20.5788C3.10497 20.3938 3.00026 20.143 3 19.8813V3.96773ZM10.622 8.36201C10.5618 8.3221 10.4919 8.29917 10.4196 8.29565C10.3473 8.29212 10.2755 8.30814 10.2116 8.34199C10.1478 8.37585 10.0944 8.42627 10.0572 8.48789C10.0199 8.54952 10.0001 8.62003 10 8.69192V15.1571C10.0001 15.229 10.0199 15.2995 10.0572 15.3612C10.0944 15.4228 10.1478 15.4732 10.2116 15.5071C10.2755 15.5409 10.3473 15.5569 10.4196 15.5534C10.4919 15.5499 10.5618 15.527 10.622 15.4871L15.501 12.2554C15.5559 12.2192 15.6009 12.17 15.632 12.1122C15.6631 12.0545 15.6794 11.99 15.6794 11.9245C15.6794 11.859 15.6631 11.7946 15.632 11.7368C15.6009 11.6791 15.5559 11.6299 15.501 11.5936L10.621 8.36201H10.622Z" fill="#5956E9"/>
</svg>
